HIERARCHY
ROOT SimulationBone
{
	OFFSET 0.000000 0.000000 0.000000
	CHANNELS 6 Xposition Yposition Zposition Zrotation Yrotation Xrotation 
	JOINT Hips
	{
		OFFSET 0.000000 0.000000 0.000000
		CHANNELS 6 Xposition Yposition Zposition Zrotation Yrotation Xrotation 
		JOINT LeftUpLeg
		{
			OFFSET 0.103456 1.857826 10.548504
			CHANNELS 3 Zrotation Yrotation Xrotation
			JOINT LeftLeg
			{
				OFFSET 43.499996 -0.000038 0.000006
				CHANNELS 3 Zrotation Yrotation Xrotation
				JOINT LeftFoot
				{
					OFFSET 42.372192 0.000011 -0.000004
					CHANNELS 3 Zrotation Yrotation Xrotation
					JOINT LeftToe
					{
						OFFSET 17.300018 0.000006 0.000004
						CHANNELS 3 Zrotation Yrotation Xrotation
						End Site
						{
							OFFSET 0.000000 0.000000 0.000000
						}
					}
				}
			}
		}
		JOINT RightUpLeg
		{
			OFFSET 0.103455 1.857819 -10.548502
			CHANNELS 3 Zrotation Yrotation Xrotation
			JOINT RightLeg
			{
				OFFSET 43.500038 -0.000031 0.000011
				CHANNELS 3 Zrotation Yrotation Xrotation
				JOINT RightFoot
				{
					OFFSET 42.372261 -0.000008 0.000014
					CHANNELS 3 Zrotation Yrotation Xrotation
					JOINT RightToe
					{
						OFFSET 17.299999 -0.000004 0.000004
						CHANNELS 3 Zrotation Yrotation Xrotation
						End Site
						{
							OFFSET 0.000000 0.000000 0.000000
						}
					}
				}
			}
		}
		JOINT Spine
		{
			OFFSET 6.901965 -2.603737 -0.000000
			CHANNELS 3 Zrotation Yrotation Xrotation
			JOINT Spine1
			{
				OFFSET 12.588105 0.000013 0.000001
				CHANNELS 3 Zrotation Yrotation Xrotation
				JOINT Spine2
				{
					OFFSET 12.343203 0.000010 -0.000000
					CHANNELS 3 Zrotation Yrotation Xrotation
					JOINT Neck
					{
						OFFSET 25.832893 -0.000038 0.000001
						CHANNELS 3 Zrotation Yrotation Xrotation
						JOINT Head
						{
							OFFSET 11.766606 0.000028 0.000001
							CHANNELS 3 Zrotation Yrotation Xrotation
							End Site
							{
								OFFSET 0.000000 0.000000 0.000000
							}
						}
					}
					JOINT LeftShoulder
					{
						OFFSET 19.745897 -1.480375 6.000107
						CHANNELS 3 Zrotation Yrotation Xrotation
						JOINT LeftArm
						{
							OFFSET 11.284126 -0.000009 -0.000017
							CHANNELS 3 Zrotation Yrotation Xrotation
							JOINT LeftForeArm
							{
								OFFSET 33.000046 0.000006 0.000030
								CHANNELS 3 Zrotation Yrotation Xrotation
								JOINT LeftHand
								{
									OFFSET 25.200006 0.000034 0.000015
									CHANNELS 3 Zrotation Yrotation Xrotation
									End Site
									{
										OFFSET 0.000000 0.000000 0.000000
									}
								}
							}
						}
					}
					JOINT RightShoulder
					{
						OFFSET 19.746096 -1.480394 -6.000075
						CHANNELS 3 Zrotation Yrotation Xrotation
						JOINT RightArm
						{
							OFFSET 11.284135 -0.000006 -0.000006
							CHANNELS 3 Zrotation Yrotation Xrotation
							JOINT RightForeArm
							{
								OFFSET 33.000095 0.000018 0.000006
								CHANNELS 3 Zrotation Yrotation Xrotation
								JOINT RightHand
								{
									OFFSET 25.199783 0.000116 0.000436
									CHANNELS 3 Zrotation Yrotation Xrotation
									End Site
									{
										OFFSET 0.000000 0.000000 0.000000
									}
								}
							}
						}
					}
				}
			}
		}
	}
}
MOTION
Frames: 13
Frame Time: 0.016667
-13.423291 0.000000 60.335828 180.000000 61.663394 180.000000 -1.168377 88.401047 0.476462 94.879239 0.463378 178.474105 166.061406 -10.158094 178.684155 -32.137477 0.677358 3.524060 86.755375 -4.059875 -8.440944 21.454550 0.003093 0.000000 178.032446 17.083599 170.858466 -26.510507 3.986142 3.295952 84.875884 0.770825 15.816772 21.454557 -0.003103 -0.000017 10.023938 -0.644118 0.970670 10.024481 -1.369928 1.881967 9.706468 -1.358409 1.890223 8.029152 0.529699 -0.592007 -17.698898 3.599324 -1.838723 -170.017027 -74.085535 -11.609675 -6.513198 54.739333 14.479019 -73.693622 -10.261377 2.315814 13.869053 -1.913943 23.462098 151.824421 74.705286 -27.463403 12.195506 -47.611062 -27.199605 -29.474690 17.274979 -1.391140 17.303898 2.931509 -29.931691 
-14.464524 0.000000 60.842305 180.000000 64.196294 180.000000 -1.212647 88.493296 0.642947 94.723090 -0.145996 178.680174 166.685821 -9.600343 176.818178 -31.917159 0.427927 3.070355 86.856664 -3.635064 -7.951403 21.454548 0.003082 -0.000002 176.209015 18.174990 169.915389 -27.426810 3.894761 2.490998 83.794808 1.485175 15.712653 21.454560 -0.003095 -0.000015 9.964341 -0.883144 1.087016 9.900137 -1.856050 2.094732 9.582083 -1.843222 2.105907 8.243531 0.446802 -1.395884 -17.454165 4.516329 -3.022557 -170.446262 -74.147931 -11.169174 -7.574773 54.208416 14.470597 -73.438309 -10.405537 2.315476 13.816218 -2.520389 24.243705 150.175570 74.420668 -29.162955 9.719656 -49.425908 -23.635172 -30.473576 17.484469 -1.423983 16.982159 4.154769 -28.518282 
-15.471325 0.000000 61.328580 180.000000 66.687135 180.000000 -1.233321 88.688362 0.747036 94.571107 -0.478629 178.976212 167.409357 -9.167007 175.217001 -31.377905 0.187218 2.548439 86.807831 -3.174051 -7.468981 21.454550 0.003083 -0.000001 174.502126 18.812107 169.552083 -28.095694 3.850313 2.208471 82.046786 1.857720 15.383565 21.454560 -0.003100 -0.000015 9.909797 -1.052279 1.169809 9.786929 -2.199723 2.246789 9.468842 -2.185973 2.260036 8.476999 0.361345 -2.341843 -17.286379 5.451005 -4.361110 -170.835557 -74.160769 -10.769590 -8.694697 53.594928 14.247425 -73.301780 -10.495163 2.315739 13.638330 -2.829975 24.734649 148.605011 74.181178 -30.779911 6.757334 -51.022451 -20.907198 -31.653520 17.539072 -1.451918 16.697562 4.946926 -26.640979 
-16.444067 0.000000 61.795131 180.000000 69.125439 180.000000 -1.245593 88.932933 0.823664 94.451804 -0.613870 179.355175 168.168223 -8.833249 173.826163 -30.686268 -0.038004 1.996661 86.681260 -2.700781 -7.003836 21.454552 0.003089 0.000001 172.959825 19.100343 169.748455 -28.605749 3.849370 2.417256 79.976081 1.881483 14.958004 21.454558 -0.003110 -0.000016 9.870307 -1.170946 1.217478 9.705069 -2.439876 2.332903 9.386952 -2.425610 2.347604 8.698517 0.285273 -3.407652 -17.204532 6.372763 -5.820119 -171.255393 -74.177932 -10.338738 -9.863399 52.923103 13.820212 -73.241327 -10.549069 2.316676 13.366711 -2.949010 24.892478 147.089423 73.932668 -32.341581 3.452701 -52.315785 -18.981646 -33.083551 17.485442 -1.479282 16.381823 5.376079 -24.749690 
-17.383122 0.000000 62.242437 180.000000 71.501806 180.000000 -1.258272 89.173698 0.909526 94.386388 -0.633027 179.811802 168.895442 -8.576912 172.591463 -30.009238 -0.244581 1.454942 86.548686 -2.240484 -6.564929 21.454555 0.003095 0.000002 171.616125 19.138699 170.473039 -29.044443 3.883638 3.086972 77.930456 1.559985 14.572805 21.454558 -0.003115 -0.000017 9.855745 -1.258565 1.228474 9.674311 -2.615423 2.347936 9.356154 -2.601069 2.363701 8.876553 0.229189 -4.570957 -17.215034 7.250036 -7.365441 -171.782603 -74.252683 -9.798078 -11.072611 52.216901 13.197946 -73.214183 -10.586070 2.318026 13.028560 -2.986078 24.674557 145.627814 73.620576 -33.852967 -0.031991 -53.231023 -17.854412 -34.833322 17.369878 -1.511233 15.960692 5.508883 -23.297879 
-18.288866 0.000000 62.670977 180.000000 73.808058 180.000000 -1.272721 89.373606 1.031578 94.383848 -0.597169 -179.673441 169.547130 -8.388983 171.452283 -29.463690 -0.434755 0.957021 86.460295 -1.814607 -6.156226 21.454555 0.003096 0.000002 170.485580 18.984339 171.654972 -29.469604 3.925109 4.189056 76.159388 0.903880 14.301884 21.454560 -0.003111 -0.000018 9.872308 -1.330415 1.206108 9.706880 -2.757286 2.296940 9.388664 -2.743232 2.313560 8.987014 0.201202 -5.808873 -17.309799 8.055531 -8.963298 -172.476124 -74.426147 -9.087638 -12.316042 51.494979 12.396229 -73.188125 -10.620204 2.319448 12.655253 -3.039866 24.077194 144.221536 73.204879 -35.315973 -3.528183 -53.732413 -17.495035 -36.964594 17.230008 -1.553251 15.363163 5.430914 -22.699564 
-19.161670 0.000000 63.081231 180.000000 76.037311 180.000000 -1.282808 89.560654 1.173743 94.431454 -0.480534 -179.183299 170.180543 -8.305294 170.320316 -28.964878 -0.617818 0.507154 86.382187 -1.425215 -5.766348 21.454555 0.003092 0.000001 169.532672 18.548804 173.097470 -29.825048 3.870162 5.701394 74.524849 -0.099629 13.973202 21.454563 -0.003107 -0.000018 9.911734 -1.385323 1.173077 9.785786 -2.864842 2.225413 9.467514 -2.851212 2.242680 9.037268 0.204813 -7.096605 -17.431734 8.782574 -10.581183 -173.292622 -74.693961 -8.252367 -13.589335 50.755992 11.464400 -73.173209 -10.646409 2.320811 12.301348 -3.162298 23.250263 142.815388 72.703132 -36.785990 -6.895649 -53.916804 -17.674939 -39.505591 17.070361 -1.607515 14.518856 5.311052 -23.211472 
-20.001909 0.000000 63.473676 180.000000 78.183999 180.000000 -1.285164 89.766957 1.313899 94.513874 -0.255196 -178.802637 170.858152 -8.349150 169.118734 -28.410356 -0.801695 0.098052 86.274439 -1.066949 -5.386231 21.454553 0.003085 -0.000001 168.705147 17.755531 174.585209 -30.035786 3.643726 7.574905 72.861682 -1.449702 13.421790 21.454561 -0.003110 -0.000017 9.962220 -1.421514 1.151828 9.886853 -2.936210 2.178596 9.568547 -2.922866 2.196296 9.044875 0.238106 -8.407459 -17.516535 9.436110 -12.186648 -174.163573 -75.031443 -7.362844 -14.876865 49.981894 10.466966 -73.188539 -10.656322 2.322163 12.016727 -3.378839 22.370076 141.362917 72.151965 -38.307865 -10.057783 -53.899634 -18.104102 -42.453816 16.876255 -1.674525 13.384286 5.292549 -24.963457 
-20.809955 0.000000 63.848793 180.000000 80.243841 180.000000 -1.280839 89.976059 1.451197 94.612508 0.023156 -178.565217 171.556730 -8.464297 167.847131 -27.828946 -0.989808 -0.291020 86.156101 -0.726850 -5.028670 21.454551 0.003082 -0.000003 167.955445 16.740088 175.950113 -30.040657 3.372980 9.642507 71.258099 -3.015975 12.733474 21.454558 -0.003112 -0.000016 10.012450 -1.451168 1.144297 9.987168 -2.995670 2.159673 9.668843 -2.982447 2.177737 9.037576 0.280749 -9.708705 -17.522637 10.037104 -13.751820 -175.025305 -75.375484 -6.483901 -16.111414 49.105856 9.498846 -73.247118 -10.647479 2.323962 11.805761 -3.666925 21.565165 139.911915 71.613970 -39.828101 -13.056386 -53.800421 -18.549941 -45.714739 16.590480 -1.751579 12.014879 5.383765 -27.725072 
-21.586183 0.000000 64.207061 180.000000 82.213761 180.000000 -1.271714 90.164541 1.587900 94.704385 0.290686 -178.480340 172.232779 -8.585855 166.529295 -27.272254 -1.184671 -0.679603 86.054811 -0.392899 -4.707056 21.454548 0.003086 -0.000002 167.256154 15.681803 177.080128 -29.799247 3.212181 11.671180 69.852561 -4.606493 12.019899 21.454556 -0.003107 -0.000017 10.052476 -1.486826 1.146231 10.066738 -3.067723 2.159396 9.748394 -3.054502 2.177897 9.040636 0.314259 -10.967369 -17.423698 10.605697 -15.248864 -175.816235 -75.663182 -5.677715 -17.220434 48.064955 8.651815 -73.353410 -10.622121 2.326633 11.655817 -3.992225 20.929046 138.516566 71.150433 -41.286381 -15.958597 -53.719054 -18.819150 -49.174985 16.156715 -1.830906 10.492724 5.546032 -31.150678 
-22.330966 0.000000 64.548957 180.000000 84.091790 180.000000 -1.262410 90.329720 1.716921 94.773061 0.529978 -178.511688 172.856242 -8.686497 165.203452 -26.752199 -1.387841 -1.070207 85.973796 -0.062762 -4.416536 21.454548 0.003091 -0.000001 166.613763 14.726494 178.039440 -29.377954 3.243399 13.283720 68.759090 -5.945605 11.290347 21.454557 -0.003105 -0.000018 10.077270 -1.528528 1.149211 10.115732 -3.151655 2.161077 9.797359 -3.138417 2.180084 9.055968 0.342288 -12.155689 -17.228908 11.138945 -16.646230 -176.538588 -75.868165 -4.941288 -18.165118 46.849325 7.970129 -73.483846 -10.595422 2.330218 11.537805 -4.321628 20.463831 137.241899 70.785906 -42.614088 -18.792153 -53.701059 -18.857613 -52.740800 15.563990 -1.909100 8.932603 5.670816 -34.778892 
-23.044677 0.000000 64.874962 180.000000 85.876932 180.000000 -1.258316 90.476194 1.830061 94.805712 0.739327 -178.613448 173.405777 -8.752099 163.912916 -26.261811 -1.599825 -1.463101 85.906239 0.264723 -4.149105 21.454551 0.003092 -0.000000 166.036699 13.980536 178.936993 -28.864251 3.502838 14.181773 68.016759 -6.791075 10.588732 21.454558 -0.003116 -0.000017 10.084088 -1.572658 1.145165 10.128947 -3.239506 2.148993 9.810535 -3.226334 2.168530 9.075649 0.374938 -13.249615 -16.961772 11.624929 -17.914100 -177.217856 -75.980635 -4.248003 -18.931517 45.475119 7.467705 -73.604834 -10.585715 2.334597 11.424285 -4.626508 20.141827 136.144230 70.528807 -43.752836 -21.556075 -53.768359 -18.661553 -56.336164 14.818142 -1.984800 7.462017 5.669120 -38.151893 
-23.727689 0.000000 65.185553 180.000000 87.569036 180.000000 -1.261923 90.616966 1.922274 94.794296 0.933160 -178.749329 173.883229 -8.779006 162.705993 -25.758103 -1.817561 -1.866681 85.829269 0.595405 -3.902268 21.454555 0.003093 0.000000 165.511466 13.419098 179.895312 -28.324285 3.873321 14.519893 67.395661 -7.122807 10.234549 21.454560 -0.003124 -0.000016 10.074392 -1.613508 1.131556 10.109441 -3.319689 2.118564 9.790991 -3.306696 2.138588 9.076965 0.426755 -14.234855 -16.670019 12.042842 -19.032676 -177.903601 -76.021947 -3.547139 -19.553132 44.009005 7.102709 -73.670679 -10.611027 2.339090 11.311452 -4.892336 19.906672 135.245790 70.353848 -44.681890 -24.163613 -53.901744 -18.303439 -59.934103 13.948579 -2.057107 6.182863 5.499825 -40.959971 
